<?xml version="1.0" encoding="UTF-8" standalone="no"?>
<!-- Created with Inkscape (http://www.inkscape.org/) -->

<svg
   xmlns:dc="http://purl.org/dc/elements/1.1/"
   xmlns:cc="http://creativecommons.org/ns#"
   xmlns:rdf="http://www.w3.org/1999/02/22-rdf-syntax-ns#"
   xmlns:svg="http://www.w3.org/2000/svg"
   xmlns="http://www.w3.org/2000/svg"
   xmlns:sodipodi="http://sodipodi.sourceforge.net/DTD/sodipodi-0.dtd"
   xmlns:inkscape="http://www.inkscape.org/namespaces/inkscape"
   width="210mm"
   height="297mm"
   viewBox="0 0 210 297"
   version="1.1"
   id="svg5"
   inkscape:version="0.92.4 (5da689c313, 2019-01-14)"
   sodipodi:docname="Zeichnung_transportbox.svg">
  <metadata
     id="metadata18">
    <rdf:RDF>
      <cc:Work
         rdf:about="">
        <dc:format>image/svg+xml</dc:format>
        <dc:type
           rdf:resource="http://purl.org/dc/dcmitype/StillImage" />
        <dc:title></dc:title>
      </cc:Work>
    </rdf:RDF>
  </metadata>
  <sodipodi:namedview
     id="namedview7"
     pagecolor="#ffffff"
     bordercolor="#000000"
     borderopacity="0.25"
     inkscape:showpageshadow="2"
     inkscape:pageopacity="0.0"
     inkscape:pagecheckerboard="0"
     inkscape:deskcolor="#d1d1d1"
     inkscape:document-units="mm"
     showgrid="true"
     inkscape:zoom="2.7787088"
     inkscape:cx="395.18799"
     inkscape:cy="490.25723"
     inkscape:window-width="1920"
     inkscape:window-height="1137"
     inkscape:window-x="-8"
     inkscape:window-y="-8"
     inkscape:window-maximized="1"
     inkscape:current-layer="layer1">
    <inkscape:grid
       type="xygrid"
       id="grid236" />
  </sodipodi:namedview>
  <defs
     id="defs2" />
  <g
     inkscape:label="Ebene 1"
     inkscape:groupmode="layer"
     id="layer1">
    <path
       id="path546"
       style="fill:#000000;fill-opacity:0.09345793;stroke:#000000;stroke-width:0.42473114;stroke-linecap:round;stroke-linejoin:round"
       d="m 115.09418,163.23803 c -2.14293,-0.21117 -3.81883,-2.01494 -3.82564,-4.21326 -0.007,-2.20704 1.67132,-4.02694 3.82521,-4.2396 -1.97053,-9.75863 -10.62227,-17.07371 -20.946024,-17.00975 -11.702731,0.0725 -21.141202,9.59913 -21.10493,21.30202 0.03625,11.70291 9.533662,21.17078 21.236622,21.17078 l 0.262943,-0.002 C 104.72892,180.12 113.1542,172.84032 115.09418,163.23778 Z"
       inkscape:connector-curvature="0" />
    <path
       style="fill:#008fdd;fill-opacity:0.62352941;stroke:#0087d1;stroke-width:0.424732;stroke-linecap:round;stroke-linejoin:round;stroke-miterlimit:4;stroke-dasharray:none;stroke-opacity:0.9859813"
       id="path556"
       sodipodi:type="arc"
       sodipodi:cx="94.068344"
       sodipodi:cy="158.80077"
       sodipodi:rx="2.5483921"
       sodipodi:ry="2.5483921"
       sodipodi:start="0"
       sodipodi:end="6.2707957"
       sodipodi:open="true"
       sodipodi:arc-type="arc"
       d="m 96.616736,158.80077 a 2.5483921,2.5483921 0 0 1 -2.540499,2.54838 2.5483921,2.5483921 0 0 1 -2.556236,-2.5326 2.5483921,2.5483921 0 0 1 2.524663,-2.56407 2.5483921,2.5483921 0 0 1 2.571877,2.51671" />
    <path
       id="path1980"
       style="fill:#00eb0d;fill-opacity:0.16000001;stroke:#00eb0d;stroke-width:0.42473114;stroke-linecap:round;stroke-linejoin:round;stroke-opacity:1"
       d="m 98.282042,166.17642 a 4.2473201,4.2473201 0 0 0 -2.060282,4.13195 l -3.987894,2.30241 1.698827,2.94246 3.987893,-2.30241 a 4.2473201,4.2473201 0 0 0 4.654354,0.25575 4.2473201,4.2473201 0 0 0 2.08249,-4.14527 l 3.98827,-2.30263 -1.69883,-2.94245 -3.98788,2.3024 a 4.2473201,4.2473201 0 0 0 -4.676948,-0.24221 z"
       inkscape:transform-center-x="-6.3727048"
       inkscape:transform-center-y="11.035339"
       inkscape:connector-curvature="0" />
    <path
       id="path1980-4"
       style="fill:#00eb0d;fill-opacity:0.16000001;stroke:#00eb0d;stroke-width:0.42473114;stroke-linecap:round;stroke-linejoin:round;stroke-opacity:1"
       d="m 98.348215,151.46083 a 4.2473201,4.2473201 0 0 0 4.608515,-0.28174 l 3.98789,2.30242 1.69883,-2.94245 -3.98789,-2.30242 a 4.2473201,4.2473201 0 0 0 -2.10568,-4.15867 4.2473201,4.2473201 0 0 0 -4.631171,0.26916 l -3.988264,-2.30264 -1.698824,2.94246 3.98788,2.30241 a 4.2473201,4.2473201 0 0 0 2.128714,4.17147 z"
       inkscape:transform-center-x="-6.3705291"
       inkscape:transform-center-y="-11.036594"
       inkscape:connector-curvature="0" />
    <path
       id="path1980-1"
       style="fill:#00eb0d;fill-opacity:0.16000001;stroke:#00eb0d;stroke-width:0.42473114;stroke-linecap:round;stroke-linejoin:round;stroke-opacity:1"
       d="m 85.570838,158.76135 a 4.2473201,4.2473201 0 0 0 -2.548241,-3.85024 l 10e-7,-4.60482 h -3.397652 l -10e-7,4.60482 a 4.2473201,4.2473201 0 0 0 -2.548673,3.90291 4.2473201,4.2473201 0 0 0 2.548674,3.87614 l -2e-6,4.60525 h 3.397653 l 10e-7,-4.60481 a 4.2473201,4.2473201 0 0 0 2.54824,-3.92925 z"
       inkscape:transform-center-x="12.743379"
       inkscape:transform-center-y="0.0012558017"
       inkscape:connector-curvature="0" />
    <text
       xml:space="preserve"
       style="font-size:2.69704819px;font-family:sans-serif;-inkscape-font-specification:'sans-serif, Normal';fill:#000000;fill-opacity:0;stroke:#000000;stroke-width:0.42473114;stroke-linecap:round;stroke-linejoin:round;stroke-opacity:1"
       x="116.82817"
       y="157.89586"
       id="text3008"><tspan
         sodipodi:role="line"
         id="tspan3006"
         style="stroke:#000000;stroke-width:0.424732;stroke-opacity:1"
         x="116.82817"
         y="157.89586">case with</tspan><tspan
         sodipodi:role="line"
         style="stroke:#000000;stroke-width:0.424732;stroke-opacity:1"
         x="116.82817"
         y="161.26717"
         id="tspan830"> indent</tspan></text>
    <text
       xml:space="preserve"
       style="font-size:2.69704819px;font-family:sans-serif;-inkscape-font-specification:'sans-serif, Normal';fill:#008fdd;fill-opacity:1;stroke:#0087d1;stroke-width:0.424732;stroke-linecap:round;stroke-linejoin:round;stroke-miterlimit:4;stroke-dasharray:none;stroke-opacity:0.98591548"
       x="85.647797"
       y="164.50073"
       id="text4620"><tspan
         sodipodi:role="line"
         id="tspan4618"
         style="fill:#008fdd;fill-opacity:1;stroke:#0087d1;stroke-width:0.424732;stroke-miterlimit:4;stroke-dasharray:none;stroke-opacity:0.98591548"
         x="85.647797"
         y="164.50073">central thread</tspan></text>
    <text
       xml:space="preserve"
       style="font-size:2.69704819px;font-family:sans-serif;-inkscape-font-specification:'sans-serif, Normal';fill:#00eb0d;fill-opacity:1;stroke:none;stroke-width:0.42473114;stroke-linecap:round;stroke-linejoin:round;stroke-opacity:1"
       x="56.451084"
       y="157.87498"
       id="text5484"><tspan
         sodipodi:role="line"
         id="tspan5482"
         style="fill:#00eb0d;fill-opacity:1;stroke:none;stroke-width:0.424732;stroke-opacity:1"
         x="56.451084"
         y="157.87498">slot for</tspan><tspan
         sodipodi:role="line"
         style="fill:#00eb0d;fill-opacity:1;stroke:none;stroke-width:0.424732;stroke-opacity:1"
         x="56.451084"
         y="161.24629"
         id="tspan828">samples</tspan></text>
  </g>
</svg>
